<svg class="border shadow-md dark:border-slate-700" viewBox="0 0 216.48 432.96" xmlns="http://www.w3.org/2000/svg" preserveAspectRatio="none" style="width: 216.48px; height: 432.96px;"><rect class="bg" id="bg" x="0" y="0" width="216.48" height="432.96" fill="#2A205E"/><g transform="translate(-135.29999999999998 297.65999999999997) scale(1)"><path d="M214,186.5Q194,238,144,222.5Q94,207,49,171Q4,135,36,77Q68,19,135,19Q202,19,218,77Q234,135,214,186.5Z" fill="#42B3FF" stroke="none" stroke-width="10"/></g><g transform="translate(81.18 -135.29999999999998) scale(1)"><path d="M218.5,177.5Q184,220,136.5,218Q89,216,45.5,175.5Q2,135,39.5,84.5Q77,34,131,41.5Q185,49,219,92Q253,135,218.5,177.5Z" fill="#42B3FF" stroke="none" stroke-width="10"/></g></svg>