<svg class="border shadow-md dark:border-slate-700" viewBox="0 0 854.48 427.24" xmlns="http://www.w3.org/2000/svg" preserveAspectRatio="none" style="width: 854.48px; height: 427.24px;"><rect class="bg" id="bg" x="0" y="0" width="854.48" height="427.24" fill="#2A205E"/><g transform="translate(-267.025 160.21500000000003) scale(1)"><path d="M447.5,364Q379,461,275.5,446Q172,431,131.5,349Q91,267,128,179Q165,91,275,76.5Q385,62,450.5,164.5Q516,267,447.5,364Z" fill="#42B3FF" stroke="none" stroke-width="10"/></g><g transform="translate(587.455 -267.025) scale(1)"><path d="M397.5,350.5Q363,434,259.5,446.5Q156,459,87.5,363Q19,267,89.5,174Q160,81,255.5,101.5Q351,122,391.5,194.5Q432,267,397.5,350.5Z" fill="#42B3FF" stroke="none" stroke-width="10"/></g></svg>