<?xml version="1.0" encoding="UTF-8"?>
<svg id="Capa_1" xmlns="http://www.w3.org/2000/svg" version="1.1" viewBox="0 0 1302 324">
  <!-- Generator: Adobe Illustrator 29.8.1, SVG Export Plug-In . SVG Version: 2.1.1 Build 2)  -->
  <defs>
    <style>
      .st0 {
        fill: #fff;
      }
    </style>
  </defs>
  <path class="st0" d="M66.83,310.18v-44.06h-15.83v-5.86h39.4v5.86h-15.93v44.06h-7.65Z"/>
  <path class="st0" d="M113.66,310.18v-49.92h33.81v5.86h-26.16v15.98h23.87v5.71h-23.87v16.54h26.16v5.86h-33.81v-.02Z"/>
  <path class="st0" d="M196.46,311.05c-5.2,0-9.73-1.09-13.55-3.24-3.82-2.15-6.75-5.18-8.81-9.05-2.03-3.87-3.05-8.38-3.05-13.51s1.02-9.59,3.05-13.49c2.03-3.9,4.99-6.92,8.81-9.08,3.82-2.15,8.35-3.24,13.55-3.24,6.22,0,11.3,1.4,15.27,4.21,3.95,2.81,6.44,6.76,7.46,11.84h-8.49c-.78-2.95-2.32-5.3-4.67-7.07-2.35-1.77-5.57-2.64-9.63-2.64-3.63,0-6.73.77-9.34,2.35-2.59,1.57-4.62,3.8-6.05,6.71-1.43,2.9-2.13,6.37-2.13,10.41s.7,7.53,2.13,10.43c1.43,2.93,3.44,5.16,6.05,6.71,2.62,1.55,5.71,2.33,9.34,2.33,4.09,0,7.29-.85,9.63-2.52,2.35-1.7,3.9-3.97,4.67-6.88h8.49c-1.02,4.94-3.51,8.81-7.46,11.6-3.94,2.78-9.05,4.16-15.27,4.16v-.02Z"/>
  <path class="st0" d="M243.9,310.18v-49.92h7.65l27.33,38.3v-38.3h7.65v49.92h-7.65l-27.33-38.23v38.23h-7.65Z"/>
  <path class="st0" d="M337.43,311.05c-5.15,0-9.66-1.09-13.55-3.24-3.87-2.15-6.92-5.18-9.15-9.05-2.23-3.87-3.34-8.38-3.34-13.51s1.11-9.56,3.34-13.44c2.23-3.87,5.28-6.9,9.15-9.08,3.87-2.18,8.4-3.27,13.55-3.27s9.78,1.09,13.72,3.27c3.94,2.18,7.02,5.21,9.17,9.08,2.18,3.87,3.24,8.35,3.24,13.44s-1.09,9.63-3.24,13.51c-2.18,3.87-5.23,6.9-9.17,9.05-3.95,2.15-8.54,3.24-13.72,3.24ZM337.43,304.71c3.73,0,6.97-.77,9.71-2.35,2.73-1.57,4.89-3.8,6.39-6.71,1.5-2.91,2.25-6.37,2.25-10.41s-.75-7.51-2.25-10.41c-1.5-2.9-3.63-5.13-6.39-6.66-2.76-1.53-6-2.32-9.71-2.32s-6.8.77-9.54,2.32c-2.73,1.55-4.86,3.78-6.39,6.66-1.53,2.9-2.3,6.37-2.3,10.41s.77,7.5,2.3,10.41c1.52,2.9,3.65,5.13,6.39,6.71,2.74,1.57,5.9,2.35,9.54,2.35Z"/>
  <path class="st0" d="M388.38,310.18v-49.92h7.65v44.28h24.49v5.64h-32.14Z"/>
  <path class="st0" d="M464.3,311.05c-5.15,0-9.66-1.09-13.55-3.24-3.87-2.15-6.92-5.18-9.15-9.05-2.23-3.87-3.34-8.38-3.34-13.51s1.11-9.56,3.34-13.44c2.23-3.87,5.28-6.9,9.15-9.08,3.87-2.18,8.4-3.27,13.55-3.27s9.78,1.09,13.72,3.27c3.94,2.18,7.02,5.21,9.17,9.08,2.18,3.87,3.24,8.35,3.24,13.44s-1.09,9.63-3.24,13.51c-2.18,3.87-5.23,6.9-9.17,9.05-3.95,2.15-8.54,3.24-13.72,3.24ZM464.3,304.71c3.73,0,6.97-.77,9.71-2.35,2.73-1.57,4.89-3.8,6.39-6.71,1.5-2.91,2.25-6.37,2.25-10.41s-.75-7.51-2.25-10.41c-1.5-2.9-3.63-5.13-6.39-6.66-2.76-1.53-6-2.32-9.71-2.32s-6.8.77-9.54,2.32c-2.74,1.55-4.86,3.78-6.39,6.66-1.52,2.9-2.3,6.37-2.3,10.41s.77,7.5,2.3,10.41c1.53,2.9,3.65,5.13,6.39,6.71,2.73,1.57,5.9,2.35,9.54,2.35Z"/>
  <path class="st0" d="M538.44,311.05c-5.06,0-9.46-1.07-13.24-3.22-3.78-2.15-6.7-5.13-8.76-8.98-2.06-3.85-3.1-8.35-3.1-13.48s1.07-9.59,3.17-13.49c2.11-3.9,5.13-6.95,9.08-9.15,3.92-2.2,8.59-3.32,14.01-3.32,6.12,0,11.23,1.36,15.3,4.09,4.09,2.74,6.71,6.51,7.89,11.38h-8.81c-.77-2.76-2.37-4.94-4.82-6.54-2.45-1.6-5.66-2.4-9.63-2.4s-7.04.77-9.8,2.35c-2.76,1.57-4.86,3.8-6.34,6.71-1.48,2.9-2.23,6.34-2.23,10.34s.73,7.51,2.18,10.41c1.45,2.9,3.53,5.11,6.24,6.63,2.71,1.53,5.81,2.28,9.34,2.28,5.4,0,9.49-1.45,12.25-4.36,2.76-2.9,4.33-6.78,4.74-11.62h-14.77v-5.49h22.58v26.95h-7.04l-.6-7.63c-1.28,1.86-2.71,3.41-4.33,4.67-1.6,1.26-3.49,2.2-5.62,2.86-2.13.65-4.7.97-7.65.97l-.05.05Z"/>
  <path class="st0" d="M585.42,257.21l-.77-4.99,15.83-8.98.99,5.86-16.07,8.13.02-.02ZM589.32,310.18v-49.92h7.65v49.92h-7.65Z"/>
  <path class="st0" d="M659.8,310.18h8.18l-19.65-49.92h-8.35l-19.65,49.92h8.04l4.7-12.32h22.07l4.67,12.32ZM635.23,292.14l8.88-23.31,8.83,23.31h-17.74.02Z"/>
  <path class="st0" d="M726.53,310.18v-49.92h33.81v5.86h-26.16v15.98h23.86v5.71h-23.86v16.54h26.16v5.86h-33.81v-.02Z"/>
  <path class="st0" d="M785.83,310.18v-49.92h16.46c6.22,0,11.38,1.02,15.47,3.07,4.09,2.03,7.09,4.94,9.08,8.67,1.96,3.73,2.95,8.16,2.95,13.29s-.99,9.56-2.95,13.27c-1.96,3.7-4.99,6.56-9.08,8.6-4.09,2.01-9.24,3.03-15.47,3.03h-16.46ZM793.48,304.2h8.5c4.89,0,8.81-.75,11.74-2.28,2.93-1.52,5.03-3.7,6.27-6.51,1.26-2.83,1.86-6.2,1.86-10.1s-.63-7.33-1.86-10.19c-1.26-2.86-3.34-5.04-6.27-6.56-2.93-1.53-6.85-2.28-11.74-2.28h-8.5v37.94-.02Z"/>
  <path class="st0" d="M874.29,311.05c-3.73,0-7.11-.7-10.17-2.11-3.05-1.4-5.49-3.53-7.31-6.42-1.82-2.88-2.71-6.54-2.71-11.02v-31.23h7.65v31.3c0,3,.53,5.45,1.57,7.38,1.04,1.91,2.54,3.34,4.48,4.29,1.94.94,4.16,1.38,6.66,1.38s4.84-.46,6.73-1.38c1.89-.92,3.36-2.35,4.4-4.29,1.04-1.94,1.57-4.38,1.57-7.38v-31.3h7.65v31.23c0,4.48-.92,8.14-2.76,11.02-1.84,2.88-4.31,5.01-7.38,6.42-3.1,1.4-6.53,2.11-10.36,2.11h-.02Z"/>
  <path class="st0" d="M944.46,311.05c-5.2,0-9.73-1.09-13.55-3.24-3.82-2.15-6.75-5.18-8.81-9.05-2.03-3.87-3.05-8.38-3.05-13.51s1.02-9.59,3.05-13.49c2.03-3.9,4.99-6.92,8.81-9.08,3.82-2.15,8.35-3.24,13.55-3.24,6.22,0,11.3,1.4,15.27,4.21,3.95,2.81,6.44,6.76,7.45,11.84h-8.49c-.78-2.95-2.32-5.3-4.67-7.07-2.35-1.77-5.57-2.64-9.63-2.64-3.63,0-6.73.77-9.34,2.35-2.59,1.57-4.62,3.8-6.05,6.71s-2.13,6.37-2.13,10.41.7,7.53,2.13,10.43c1.43,2.93,3.44,5.16,6.05,6.71,2.61,1.55,5.71,2.33,9.34,2.33,4.09,0,7.29-.85,9.63-2.52,2.35-1.7,3.9-3.97,4.67-6.88h8.49c-1.02,4.94-3.51,8.81-7.45,11.6-3.95,2.78-9.05,4.16-15.27,4.16v-.02Z"/>
  <path class="st0" d="M1026.87,310.18h8.19l-19.66-49.92h-8.35l-19.65,49.92h8.04l4.7-12.32h22.07l4.67,12.32ZM1002.31,292.14l8.88-23.31,8.83,23.31h-17.74.03Z"/>
  <path class="st0" d="M1064.97,310.18v-44.06h-15.83v-5.86h39.4v5.86h-15.92v44.06h-7.65Z"/>
  <path class="st0" d="M1111.8,310.18v-49.92h7.65v49.92h-7.65Z"/>
  <path class="st0" d="M1162.15,310.18l-19.97-49.92h8.25l16.22,42.49,16.39-42.49h8.1l-19.89,49.92h-9.1Z"/>
  <path class="st0" d="M1242.82,310.18h8.18l-19.65-49.92h-8.35l-19.66,49.92h8.04l4.69-12.32h22.08l4.67,12.32ZM1218.25,292.14l8.88-23.31,8.84,23.31h-17.74.02Z"/>
  <path class="st0" d="M163.5,13v37.5h-75.01v37.5h75.01v37.5h-75.01v37.5h75.01v37.5H51V13h112.5ZM322.88,31.76l-18.76-18.76h-112.5v187.56h112.5l18.76-18.76V31.76ZM285.39,163.05h-56.25V50.5h56.25v112.55ZM444.77,163.05V13h37.49v187.56h-131.26V13h37.49v150.03h56.25l.02.02ZM547.88,50.5h84.37V13h-121.87v187.56h121.87v-37.5h-84.37V50.5ZM1110.38,200.53h-131.26V13h131.26v187.56-.02ZM1072.88,125.5V50.5h-56.25v112.53h56.25v-37.53ZM1138.5,13h112.5v37.5h-37.49v150.03h-37.49V50.5h-37.5V13h-.02ZM660.38,13v187.56h37.49v-75.03h56.25v75.03h37.49V13h-131.26.02ZM754.12,88.03h-56.25v-37.53h56.25v37.53ZM950.99,88.03l-18.76,18.76,18.76,18.76v75.03h-131.26V13h131.26v75.03ZM894.74,163.05h18.76v-37.5h-56.25v37.5h37.49ZM894.74,88.03h18.76v-37.53h-56.25v37.5h37.49v.02Z"/>
</svg>